<mxfile host="app.diagrams.net" modified="2022-07-15T11:32:03.514Z" agent="5.0 (Macintosh; Intel Mac OS X 10_15_7) AppleWebKit/605.1.15 (KHTML, like Gecko) Version/15.5 Safari/605.1.15" etag="4_hBjdGBBpXsoMwvbhkX" version="20.1.1" type="github">
  <diagram id="_qY6aH81968T1rHTuvFc" name="Page-1">
    <mxGraphModel dx="1298" dy="865" grid="1" gridSize="10" guides="1" tooltips="1" connect="1" arrows="1" fold="1" page="1" pageScale="1" pageWidth="827" pageHeight="1169" math="0" shadow="0">
      <root>
        <mxCell id="0" />
        <mxCell id="1" parent="0" />
        <mxCell id="ke3IQF4Mm_EFFkzlHo-Y-94" value="" style="rounded=0;whiteSpace=wrap;html=1;fillColor=none;dashed=1;" vertex="1" parent="1">
          <mxGeometry x="120" y="830" width="620" height="220" as="geometry" />
        </mxCell>
        <mxCell id="ke3IQF4Mm_EFFkzlHo-Y-44" value="" style="rounded=0;whiteSpace=wrap;html=1;fillColor=none;dashed=1;" vertex="1" parent="1">
          <mxGeometry x="20" y="300" width="220" height="200" as="geometry" />
        </mxCell>
        <mxCell id="ke3IQF4Mm_EFFkzlHo-Y-2" value="" style="rounded=0;whiteSpace=wrap;html=1;" vertex="1" parent="1">
          <mxGeometry x="40" y="360" width="680" height="80" as="geometry" />
        </mxCell>
        <mxCell id="ke3IQF4Mm_EFFkzlHo-Y-3" value="" style="endArrow=none;html=1;rounded=0;exitX=0.059;exitY=0.988;exitDx=0;exitDy=0;exitPerimeter=0;" edge="1" parent="1" source="ke3IQF4Mm_EFFkzlHo-Y-2">
          <mxGeometry width="50" height="50" relative="1" as="geometry">
            <mxPoint x="390" y="470" as="sourcePoint" />
            <mxPoint x="80" y="360" as="targetPoint" />
          </mxGeometry>
        </mxCell>
        <mxCell id="ke3IQF4Mm_EFFkzlHo-Y-4" value="version&lt;br&gt;1 byte" style="text;html=1;strokeColor=none;fillColor=none;align=center;verticalAlign=middle;whiteSpace=wrap;rounded=0;" vertex="1" parent="1">
          <mxGeometry x="30" y="320" width="60" height="30" as="geometry" />
        </mxCell>
        <mxCell id="ke3IQF4Mm_EFFkzlHo-Y-5" value="" style="endArrow=none;html=1;rounded=0;exitX=0.059;exitY=0.988;exitDx=0;exitDy=0;exitPerimeter=0;" edge="1" parent="1">
          <mxGeometry width="50" height="50" relative="1" as="geometry">
            <mxPoint x="120.11999999999989" y="439.03999999999996" as="sourcePoint" />
            <mxPoint x="120" y="360" as="targetPoint" />
          </mxGeometry>
        </mxCell>
        <mxCell id="ke3IQF4Mm_EFFkzlHo-Y-6" value="records&lt;br&gt;&amp;nbsp;quantity&lt;br&gt;1 byte" style="text;html=1;align=center;verticalAlign=middle;resizable=0;points=[];autosize=1;strokeColor=none;fillColor=none;" vertex="1" parent="1">
          <mxGeometry x="60" y="440" width="70" height="60" as="geometry" />
        </mxCell>
        <mxCell id="ke3IQF4Mm_EFFkzlHo-Y-7" value="" style="endArrow=none;html=1;rounded=0;exitX=0.059;exitY=0.988;exitDx=0;exitDy=0;exitPerimeter=0;" edge="1" parent="1">
          <mxGeometry width="50" height="50" relative="1" as="geometry">
            <mxPoint x="240.1199999999999" y="439.03999999999996" as="sourcePoint" />
            <mxPoint x="240" y="360" as="targetPoint" />
          </mxGeometry>
        </mxCell>
        <mxCell id="ke3IQF4Mm_EFFkzlHo-Y-8" value="N Recors&lt;br&gt;1. Type - 2 byte&lt;br&gt;2. Len - 4/8 byte" style="text;html=1;align=center;verticalAlign=middle;resizable=0;points=[];autosize=1;strokeColor=none;fillColor=none;" vertex="1" parent="1">
          <mxGeometry x="120" y="300" width="110" height="60" as="geometry" />
        </mxCell>
        <mxCell id="ke3IQF4Mm_EFFkzlHo-Y-9" value="" style="endArrow=none;dashed=1;html=1;dashPattern=1 3;strokeWidth=2;rounded=0;exitX=0.159;exitY=1;exitDx=0;exitDy=0;exitPerimeter=0;" edge="1" parent="1" source="ke3IQF4Mm_EFFkzlHo-Y-2">
          <mxGeometry width="50" height="50" relative="1" as="geometry">
            <mxPoint x="390" y="470" as="sourcePoint" />
            <mxPoint x="148" y="360" as="targetPoint" />
          </mxGeometry>
        </mxCell>
        <mxCell id="ke3IQF4Mm_EFFkzlHo-Y-10" value="" style="endArrow=none;dashed=1;html=1;dashPattern=1 3;strokeWidth=2;rounded=0;exitX=0.159;exitY=1;exitDx=0;exitDy=0;exitPerimeter=0;" edge="1" parent="1">
          <mxGeometry width="50" height="50" relative="1" as="geometry">
            <mxPoint x="170.1199999999999" y="440" as="sourcePoint" />
            <mxPoint x="170" y="360" as="targetPoint" />
          </mxGeometry>
        </mxCell>
        <mxCell id="ke3IQF4Mm_EFFkzlHo-Y-11" value="N" style="text;html=1;align=center;verticalAlign=middle;resizable=0;points=[];autosize=1;strokeColor=none;fillColor=none;" vertex="1" parent="1">
          <mxGeometry x="200" y="380" width="30" height="30" as="geometry" />
        </mxCell>
        <mxCell id="ke3IQF4Mm_EFFkzlHo-Y-12" value="" style="endArrow=none;dashed=1;html=1;dashPattern=1 3;strokeWidth=2;rounded=0;exitX=0.159;exitY=1;exitDx=0;exitDy=0;exitPerimeter=0;" edge="1" parent="1">
          <mxGeometry width="50" height="50" relative="1" as="geometry">
            <mxPoint x="200.1199999999999" y="440" as="sourcePoint" />
            <mxPoint x="200" y="360" as="targetPoint" />
          </mxGeometry>
        </mxCell>
        <mxCell id="ke3IQF4Mm_EFFkzlHo-Y-13" value="N Payload&lt;br&gt;Record.Len" style="text;html=1;align=center;verticalAlign=middle;resizable=0;points=[];autosize=1;strokeColor=none;fillColor=none;" vertex="1" parent="1">
          <mxGeometry x="315" y="310" width="90" height="40" as="geometry" />
        </mxCell>
        <mxCell id="ke3IQF4Mm_EFFkzlHo-Y-14" value="" style="endArrow=none;dashed=1;html=1;dashPattern=1 3;strokeWidth=2;rounded=0;exitX=0.159;exitY=1;exitDx=0;exitDy=0;exitPerimeter=0;" edge="1" parent="1">
          <mxGeometry width="50" height="50" relative="1" as="geometry">
            <mxPoint x="320.1199999999999" y="435" as="sourcePoint" />
            <mxPoint x="320" y="355" as="targetPoint" />
          </mxGeometry>
        </mxCell>
        <mxCell id="ke3IQF4Mm_EFFkzlHo-Y-15" value="" style="endArrow=none;dashed=1;html=1;dashPattern=1 3;strokeWidth=2;rounded=0;exitX=0.159;exitY=1;exitDx=0;exitDy=0;exitPerimeter=0;" edge="1" parent="1">
          <mxGeometry width="50" height="50" relative="1" as="geometry">
            <mxPoint x="359.6199999999999" y="435" as="sourcePoint" />
            <mxPoint x="359.5" y="355" as="targetPoint" />
          </mxGeometry>
        </mxCell>
        <mxCell id="ke3IQF4Mm_EFFkzlHo-Y-16" value="1" style="text;html=1;align=center;verticalAlign=middle;resizable=0;points=[];autosize=1;strokeColor=none;fillColor=none;" vertex="1" parent="1">
          <mxGeometry x="260" y="380" width="30" height="30" as="geometry" />
        </mxCell>
        <mxCell id="ke3IQF4Mm_EFFkzlHo-Y-17" value="2" style="text;html=1;align=center;verticalAlign=middle;resizable=0;points=[];autosize=1;strokeColor=none;fillColor=none;" vertex="1" parent="1">
          <mxGeometry x="330" y="380" width="30" height="30" as="geometry" />
        </mxCell>
        <mxCell id="ke3IQF4Mm_EFFkzlHo-Y-18" value="" style="endArrow=none;dashed=1;html=1;dashPattern=1 3;strokeWidth=2;rounded=0;exitX=0.159;exitY=1;exitDx=0;exitDy=0;exitPerimeter=0;" edge="1" parent="1">
          <mxGeometry width="50" height="50" relative="1" as="geometry">
            <mxPoint x="640.1199999999999" y="435" as="sourcePoint" />
            <mxPoint x="640" y="355" as="targetPoint" />
          </mxGeometry>
        </mxCell>
        <mxCell id="ke3IQF4Mm_EFFkzlHo-Y-19" value="N" style="text;html=1;align=center;verticalAlign=middle;resizable=0;points=[];autosize=1;strokeColor=none;fillColor=none;" vertex="1" parent="1">
          <mxGeometry x="670" y="380" width="30" height="30" as="geometry" />
        </mxCell>
        <mxCell id="ke3IQF4Mm_EFFkzlHo-Y-20" value="1" style="text;html=1;align=center;verticalAlign=middle;resizable=0;points=[];autosize=1;strokeColor=none;fillColor=none;" vertex="1" parent="1">
          <mxGeometry x="120" y="380" width="30" height="30" as="geometry" />
        </mxCell>
        <mxCell id="ke3IQF4Mm_EFFkzlHo-Y-21" value="2" style="text;html=1;align=center;verticalAlign=middle;resizable=0;points=[];autosize=1;strokeColor=none;fillColor=none;" vertex="1" parent="1">
          <mxGeometry x="140" y="380" width="30" height="30" as="geometry" />
        </mxCell>
        <mxCell id="ke3IQF4Mm_EFFkzlHo-Y-29" value="1 Record" style="swimlane;fontStyle=0;childLayout=stackLayout;horizontal=1;startSize=26;fillColor=none;horizontalStack=0;resizeParent=1;resizeParentMax=0;resizeLast=0;collapsible=1;marginBottom=0;" vertex="1" parent="1">
          <mxGeometry x="80" y="540" width="140" height="78" as="geometry" />
        </mxCell>
        <mxCell id="ke3IQF4Mm_EFFkzlHo-Y-30" value="+ Type: &quot;Meta&quot;" style="text;strokeColor=none;fillColor=none;align=left;verticalAlign=top;spacingLeft=4;spacingRight=4;overflow=hidden;rotatable=0;points=[[0,0.5],[1,0.5]];portConstraint=eastwest;" vertex="1" parent="ke3IQF4Mm_EFFkzlHo-Y-29">
          <mxGeometry y="26" width="140" height="26" as="geometry" />
        </mxCell>
        <mxCell id="ke3IQF4Mm_EFFkzlHo-Y-31" value="+ Len: 114" style="text;strokeColor=none;fillColor=none;align=left;verticalAlign=top;spacingLeft=4;spacingRight=4;overflow=hidden;rotatable=0;points=[[0,0.5],[1,0.5]];portConstraint=eastwest;" vertex="1" parent="ke3IQF4Mm_EFFkzlHo-Y-29">
          <mxGeometry y="52" width="140" height="26" as="geometry" />
        </mxCell>
        <mxCell id="ke3IQF4Mm_EFFkzlHo-Y-37" value="1 Record" style="swimlane;fontStyle=0;childLayout=stackLayout;horizontal=1;startSize=26;fillColor=none;horizontalStack=0;resizeParent=1;resizeParentMax=0;resizeLast=0;collapsible=1;marginBottom=0;" vertex="1" parent="1">
          <mxGeometry x="80" y="640" width="140" height="78" as="geometry" />
        </mxCell>
        <mxCell id="ke3IQF4Mm_EFFkzlHo-Y-38" value="+ Tire: &quot;Payload&quot;" style="text;strokeColor=none;fillColor=none;align=left;verticalAlign=top;spacingLeft=4;spacingRight=4;overflow=hidden;rotatable=0;points=[[0,0.5],[1,0.5]];portConstraint=eastwest;" vertex="1" parent="ke3IQF4Mm_EFFkzlHo-Y-37">
          <mxGeometry y="26" width="140" height="26" as="geometry" />
        </mxCell>
        <mxCell id="ke3IQF4Mm_EFFkzlHo-Y-39" value="+Len: 7000000" style="text;strokeColor=none;fillColor=none;align=left;verticalAlign=top;spacingLeft=4;spacingRight=4;overflow=hidden;rotatable=0;points=[[0,0.5],[1,0.5]];portConstraint=eastwest;" vertex="1" parent="ke3IQF4Mm_EFFkzlHo-Y-37">
          <mxGeometry y="52" width="140" height="26" as="geometry" />
        </mxCell>
        <mxCell id="ke3IQF4Mm_EFFkzlHo-Y-40" value="&lt;p style=&quot;margin:0px;margin-top:4px;text-align:center;&quot;&gt;&lt;b&gt;Json&lt;/b&gt;&lt;/p&gt;&lt;hr size=&quot;1&quot;&gt;&lt;p style=&quot;margin:0px;margin-left:4px;&quot;&gt;&quot;content_type&quot;: video/mp4&lt;/p&gt;&lt;hr size=&quot;1&quot;&gt;&lt;p style=&quot;margin:0px;margin-left:4px;&quot;&gt;&quot;aspect_ratio&quot;: 1&lt;/p&gt;" style="verticalAlign=top;align=left;overflow=fill;fontSize=12;fontFamily=Helvetica;html=1;fillColor=none;" vertex="1" parent="1">
          <mxGeometry x="300" y="570" width="160" height="90" as="geometry" />
        </mxCell>
        <mxCell id="ke3IQF4Mm_EFFkzlHo-Y-41" value="&lt;p style=&quot;margin:0px;margin-top:4px;text-align:center;&quot;&gt;&lt;b&gt;&lt;br&gt;&lt;/b&gt;&lt;/p&gt;&lt;p style=&quot;margin:0px;margin-top:4px;text-align:center;&quot;&gt;&lt;b&gt;[]byte&lt;/b&gt;&lt;br&gt;&lt;/p&gt;&lt;p style=&quot;margin:0px;margin-left:4px;&quot;&gt;&lt;br&gt;&lt;/p&gt;" style="verticalAlign=top;align=left;overflow=fill;fontSize=12;fontFamily=Helvetica;html=1;fillColor=none;" vertex="1" parent="1">
          <mxGeometry x="300" y="692" width="160" height="90" as="geometry" />
        </mxCell>
        <mxCell id="ke3IQF4Mm_EFFkzlHo-Y-42" value="" style="endArrow=classic;html=1;rounded=0;exitX=1;exitY=0.5;exitDx=0;exitDy=0;entryX=0.013;entryY=0.589;entryDx=0;entryDy=0;entryPerimeter=0;" edge="1" parent="1" source="ke3IQF4Mm_EFFkzlHo-Y-30" target="ke3IQF4Mm_EFFkzlHo-Y-40">
          <mxGeometry width="50" height="50" relative="1" as="geometry">
            <mxPoint x="350" y="610" as="sourcePoint" />
            <mxPoint x="400" y="560" as="targetPoint" />
          </mxGeometry>
        </mxCell>
        <mxCell id="ke3IQF4Mm_EFFkzlHo-Y-43" value="" style="endArrow=classic;html=1;rounded=0;exitX=1;exitY=0.5;exitDx=0;exitDy=0;entryX=0;entryY=0.5;entryDx=0;entryDy=0;" edge="1" parent="1" source="ke3IQF4Mm_EFFkzlHo-Y-38" target="ke3IQF4Mm_EFFkzlHo-Y-41">
          <mxGeometry width="50" height="50" relative="1" as="geometry">
            <mxPoint x="230" y="589" as="sourcePoint" />
            <mxPoint x="302.0799999999999" y="591.01" as="targetPoint" />
          </mxGeometry>
        </mxCell>
        <mxCell id="ke3IQF4Mm_EFFkzlHo-Y-66" value="" style="rounded=0;whiteSpace=wrap;html=1;" vertex="1" parent="1">
          <mxGeometry x="40" y="900" width="680" height="80" as="geometry" />
        </mxCell>
        <mxCell id="ke3IQF4Mm_EFFkzlHo-Y-67" value="" style="endArrow=none;html=1;rounded=0;exitX=0.059;exitY=0.988;exitDx=0;exitDy=0;exitPerimeter=0;" edge="1" parent="1" source="ke3IQF4Mm_EFFkzlHo-Y-66">
          <mxGeometry width="50" height="50" relative="1" as="geometry">
            <mxPoint x="390" y="1010" as="sourcePoint" />
            <mxPoint x="80" y="900" as="targetPoint" />
          </mxGeometry>
        </mxCell>
        <mxCell id="ke3IQF4Mm_EFFkzlHo-Y-68" value="version&lt;br&gt;1 byte" style="text;html=1;strokeColor=none;fillColor=none;align=center;verticalAlign=middle;whiteSpace=wrap;rounded=0;" vertex="1" parent="1">
          <mxGeometry x="30" y="860" width="60" height="30" as="geometry" />
        </mxCell>
        <mxCell id="ke3IQF4Mm_EFFkzlHo-Y-69" value="" style="endArrow=none;html=1;rounded=0;exitX=0.059;exitY=0.988;exitDx=0;exitDy=0;exitPerimeter=0;" edge="1" parent="1">
          <mxGeometry width="50" height="50" relative="1" as="geometry">
            <mxPoint x="120.11999999999989" y="979.04" as="sourcePoint" />
            <mxPoint x="120" y="900" as="targetPoint" />
          </mxGeometry>
        </mxCell>
        <mxCell id="ke3IQF4Mm_EFFkzlHo-Y-70" value="records&lt;br&gt;&amp;nbsp;quantity&lt;br&gt;1 byte" style="text;html=1;align=center;verticalAlign=middle;resizable=0;points=[];autosize=1;strokeColor=none;fillColor=none;" vertex="1" parent="1">
          <mxGeometry x="60" y="980" width="70" height="60" as="geometry" />
        </mxCell>
        <mxCell id="ke3IQF4Mm_EFFkzlHo-Y-77" value="N Record&lt;br&gt;1. Header&lt;br&gt;2. Payload" style="text;html=1;align=center;verticalAlign=middle;resizable=0;points=[];autosize=1;strokeColor=none;fillColor=none;" vertex="1" parent="1">
          <mxGeometry x="390" y="840" width="80" height="60" as="geometry" />
        </mxCell>
        <mxCell id="ke3IQF4Mm_EFFkzlHo-Y-86" value="" style="endArrow=none;html=1;rounded=0;exitX=0.059;exitY=0.988;exitDx=0;exitDy=0;exitPerimeter=0;" edge="1" parent="1">
          <mxGeometry width="50" height="50" relative="1" as="geometry">
            <mxPoint x="430.1199999999999" y="980" as="sourcePoint" />
            <mxPoint x="430" y="900.96" as="targetPoint" />
          </mxGeometry>
        </mxCell>
        <mxCell id="ke3IQF4Mm_EFFkzlHo-Y-87" value="" style="endArrow=none;dashed=1;html=1;dashPattern=1 3;strokeWidth=2;rounded=0;exitX=0.159;exitY=1;exitDx=0;exitDy=0;exitPerimeter=0;" edge="1" parent="1">
          <mxGeometry width="50" height="50" relative="1" as="geometry">
            <mxPoint x="260.1199999999999" y="980" as="sourcePoint" />
            <mxPoint x="260" y="900" as="targetPoint" />
          </mxGeometry>
        </mxCell>
        <mxCell id="ke3IQF4Mm_EFFkzlHo-Y-88" value="" style="endArrow=none;dashed=1;html=1;dashPattern=1 3;strokeWidth=2;rounded=0;exitX=0.159;exitY=1;exitDx=0;exitDy=0;exitPerimeter=0;" edge="1" parent="1">
          <mxGeometry width="50" height="50" relative="1" as="geometry">
            <mxPoint x="510.1199999999999" y="980" as="sourcePoint" />
            <mxPoint x="510" y="900" as="targetPoint" />
          </mxGeometry>
        </mxCell>
        <mxCell id="ke3IQF4Mm_EFFkzlHo-Y-90" value="Header&lt;br&gt;1. Type - 2 byte&lt;br&gt;2. Len - 4/8 byte" style="text;html=1;align=center;verticalAlign=middle;resizable=0;points=[];autosize=1;strokeColor=none;fillColor=none;" vertex="1" parent="1">
          <mxGeometry x="140" y="910" width="110" height="60" as="geometry" />
        </mxCell>
        <mxCell id="ke3IQF4Mm_EFFkzlHo-Y-91" value="Payload" style="text;html=1;align=center;verticalAlign=middle;resizable=0;points=[];autosize=1;strokeColor=none;fillColor=none;" vertex="1" parent="1">
          <mxGeometry x="280" y="925" width="70" height="30" as="geometry" />
        </mxCell>
        <mxCell id="ke3IQF4Mm_EFFkzlHo-Y-92" value="Header" style="text;html=1;align=center;verticalAlign=middle;resizable=0;points=[];autosize=1;strokeColor=none;fillColor=none;" vertex="1" parent="1">
          <mxGeometry x="440" y="925" width="60" height="30" as="geometry" />
        </mxCell>
        <mxCell id="ke3IQF4Mm_EFFkzlHo-Y-93" value="Payload" style="text;html=1;align=center;verticalAlign=middle;resizable=0;points=[];autosize=1;strokeColor=none;fillColor=none;" vertex="1" parent="1">
          <mxGeometry x="590" y="920" width="70" height="30" as="geometry" />
        </mxCell>
        <mxCell id="ke3IQF4Mm_EFFkzlHo-Y-96" value="Header" style="text;html=1;align=center;verticalAlign=middle;resizable=0;points=[];autosize=1;strokeColor=none;fillColor=none;" vertex="1" parent="1">
          <mxGeometry x="60" y="265" width="60" height="30" as="geometry" />
        </mxCell>
        <mxCell id="ke3IQF4Mm_EFFkzlHo-Y-97" value="" style="rounded=0;whiteSpace=wrap;html=1;fillColor=none;dashed=1;" vertex="1" parent="1">
          <mxGeometry x="240" y="300" width="480" height="200" as="geometry" />
        </mxCell>
        <mxCell id="ke3IQF4Mm_EFFkzlHo-Y-98" value="Payload" style="text;html=1;align=center;verticalAlign=middle;resizable=0;points=[];autosize=1;strokeColor=none;fillColor=none;" vertex="1" parent="1">
          <mxGeometry x="385" y="265" width="70" height="30" as="geometry" />
        </mxCell>
        <mxCell id="ke3IQF4Mm_EFFkzlHo-Y-99" value="" style="rounded=0;whiteSpace=wrap;html=1;fillColor=none;dashed=1;" vertex="1" parent="1">
          <mxGeometry x="20" y="830" width="100" height="220" as="geometry" />
        </mxCell>
        <mxCell id="ke3IQF4Mm_EFFkzlHo-Y-100" value="2." style="text;html=1;align=center;verticalAlign=middle;resizable=0;points=[];autosize=1;strokeColor=none;fillColor=none;" vertex="1" parent="1">
          <mxGeometry x="25" y="785" width="30" height="30" as="geometry" />
        </mxCell>
        <mxCell id="ke3IQF4Mm_EFFkzlHo-Y-101" value="1." style="text;html=1;align=center;verticalAlign=middle;resizable=0;points=[];autosize=1;strokeColor=none;fillColor=none;" vertex="1" parent="1">
          <mxGeometry x="15" y="205" width="30" height="30" as="geometry" />
        </mxCell>
      </root>
    </mxGraphModel>
  </diagram>
</mxfile>
